<?xml version="1.0" encoding="UTF-8"?>
<svg version="1.1" xmlns="http://www.w3.org/2000/svg" width="581" height="613">
<path d="M0 0 C1.02975197 0.01077827 1.02975197 0.01077827 2.08030701 0.02177429 C2.78537888 0.02223251 3.49045074 0.02269073 4.21688843 0.02316284 C5.70726708 0.02618442 7.1976426 0.03406794 8.68797302 0.0464325 C10.97706709 0.06469849 13.26575703 0.06694213 15.55491638 0.06669617 C17.00088344 0.07161098 18.44684775 0.07743915 19.89280701 0.08427429 C20.92559532 0.08594353 20.92559532 0.08594353 21.97924805 0.08764648 C26.80409576 0.13618805 26.80409576 0.13618805 27.92015076 1.25224304 C28.18319809 5.58988919 28.08422951 9.94634408 28.07249451 14.29130554 C28.07179396 14.99744617 28.07109341 15.70358681 28.07037163 16.43112564 C28.03073965 39.91529962 27.24980027 63.39325543 26.5877533 86.86607361 C26.44693929 91.90520322 26.31130142 96.94446671 26.17573643 101.98373985 C26.04295854 106.90332865 25.9076678 111.82284582 25.77157402 116.7423439 C25.7076095 119.05997228 25.64422118 121.37761666 25.58146858 123.69527817 C25.21287897 137.22731831 24.71268074 150.73803103 23.92015076 164.25224304 C55.16308746 156.34201999 55.16308746 156.34201999 78.07249451 135.26396179 C81.76083211 127.87416083 81.97862452 120.3800968 81.92015076 112.25224304 C80.89921326 112.87099304 80.89921326 112.87099304 79.85765076 113.50224304 C78.88827576 114.07974304 77.91890076 114.65724304 76.92015076 115.25224304 C76.34265076 115.60028992 75.76515076 115.94833679 75.17015076 116.30693054 C68.74686985 120.09998866 63.32960873 121.12633548 55.92015076 120.25224304 C48.0500247 118.06211694 39.73846167 114.10956962 34.92015076 107.25224304 C35.03343201 104.63896179 35.03343201 104.63896179 35.92015076 102.25224304 C44.24778822 94.96556026 55.48305156 95.71643474 65.92015076 96.25224304 C78.60391377 97.63278868 89.53455254 103.4728703 97.60374451 113.38896179 C102.60771753 120.47173667 104.85831784 127.59732133 103.92015076 136.25224304 C99.51753851 153.7369031 86.82980555 164.95325892 72.00511169 174.03691101 C66.15375294 177.44769132 60.0449712 180.37092147 53.92015076 183.25224304 C54.59819763 183.72532898 55.27624451 184.19841492 55.97483826 184.68583679 C69.40089021 194.22540002 82.92820457 205.07760791 86.60374451 221.99833679 C88.50887802 235.56947304 85.02000781 247.67234518 77.92015076 259.25224304 C70.68016998 268.83620228 61.3971913 275.76224906 51.42015076 282.25224304 C50.8082489 282.65064392 50.19634705 283.0490448 49.56590271 283.45951843 C45.17046139 286.25224304 45.17046139 286.25224304 42.92015076 286.25224304 C42.92015076 286.91224304 42.92015076 287.57224304 42.92015076 288.25224304 C43.64847107 288.51907898 44.37679138 288.78591492 45.12718201 289.06083679 C56.99238408 294.1222167 69.78206839 305.16139335 75.17015076 316.99833679 C80.47607283 331.16588566 77.61638853 343.48871822 71.75608826 356.92021179 C65.29708795 369.33291645 54.98638196 378.99648326 43.92015076 387.25224304 C44.78640076 388.24224304 45.65265076 389.23224304 46.54515076 390.25224304 C55.12474165 400.32921536 61.59915995 409.41743074 60.92015076 423.25224304 C58.12185234 438.99267163 48.67917645 446.72920688 36.62620544 455.94218445 C34.36417525 457.67916986 32.14004279 459.46187035 29.92015076 461.25224304 C30.88436951 462.09786804 31.84858826 462.94349304 32.84202576 463.81474304 C34.11863866 464.95993991 35.39464841 466.10580939 36.67015076 467.25224304 C37.30436951 467.80525085 37.93858826 468.35825867 38.59202576 468.92802429 C44.35973657 474.15501222 48.39700815 480.27907721 49.22874451 488.18583679 C49.56183774 497.2399166 48.1061917 503.74182789 42.92015076 511.25224304 C40.99961544 513.30686979 39.27432046 514.68279658 36.92015076 516.25224304 C35.55079382 513.51352916 36.23033559 512.0373149 36.85765076 509.06474304 C38.44496684 500.79342248 38.43380009 494.72095296 34.23265076 487.25224304 C30.14440643 481.94857473 25.42434496 478.46161893 19.67796326 475.06474304 C18.78480408 474.53493835 17.8916449 474.00513367 16.97142029 473.45927429 C16.29450134 473.06095398 15.6175824 472.66263367 14.92015076 472.25224304 C14.92538757 472.82333298 14.93062439 473.39442291 14.9360199 473.9828186 C15.08217861 492.83648265 14.5879814 511.65000935 13.99302673 530.49107361 C13.86956592 534.42765361 13.75054643 538.36436803 13.63108826 542.30107117 C13.39831261 549.95159534 13.16084393 557.60196342 12.92015076 565.25224304 C11.60015076 565.25224304 10.28015076 565.25224304 8.92015076 565.25224304 C8.6536348 557.40871481 8.39262473 549.5650219 8.1378479 541.72110462 C8.01927059 538.07522684 7.89909038 534.42941969 7.77464294 530.78373718 C7.1097812 511.26352643 6.77431649 491.78548168 6.92015076 472.25224304 C5.31149416 473.20602966 3.70426337 474.16222133 2.09764099 475.11943054 C0.75487343 475.91776306 0.75487343 475.91776306 -0.61502075 476.73222351 C-6.84335346 480.57313472 -12.52558737 485.22802288 -15.07984924 492.25224304 C-15.30672424 492.87099304 -15.53359924 493.48974304 -15.76734924 494.12724304 C-16.83601762 501.39418801 -15.54476685 508.13692894 -14.07984924 515.25224304 C-15.39984924 515.25224304 -16.71984924 515.25224304 -18.07984924 515.25224304 C-19.93141174 513.27568054 -19.93141174 513.27568054 -21.70484924 510.62724304 C-22.59043518 509.3394696 -22.59043518 509.3394696 -23.49391174 508.02568054 C-27.82673535 500.44857521 -27.93044204 492.79361238 -27.07984924 484.25224304 C-24.95522769 477.08164531 -20.63367363 472.07808199 -15.07984924 467.25224304 C-14.41856018 466.67087585 -13.75727112 466.08950867 -13.07594299 465.49052429 C-11.42560883 464.06023469 -9.75474708 462.65368817 -8.07984924 461.25224304 C-10.52684284 459.29117725 -12.97627188 457.33387024 -15.43922424 455.39286804 C-18.00251891 453.36568729 -20.54384652 451.31345179 -23.07984924 449.25224304 C-24.30381409 448.27191101 -24.30381409 448.27191101 -25.55250549 447.27177429 C-33.26261843 440.82308217 -38.13434374 433.42457809 -39.07984924 423.25224304 C-39.51005146 411.33895091 -35.18498744 402.36216452 -27.20484924 393.68974304 C-26.42367737 392.90470398 -25.64250549 392.11966492 -24.83766174 391.31083679 C-22.75516716 389.32316672 -22.75516716 389.32316672 -23.07984924 386.25224304 C-25.0008137 384.41722352 -25.0008137 384.41722352 -27.51734924 382.62724304 C-41.09319676 372.10020874 -52.6095053 357.99880416 -55.79469299 340.61943054 C-57.15763896 329.305112 -55.84792262 318.95105572 -48.95484924 309.56474304 C-41.63461591 300.95453228 -32.84413639 293.92232751 -23.07984924 288.25224304 C-22.41984924 288.25224304 -21.75984924 288.25224304 -21.07984924 288.25224304 C-21.07984924 287.59224304 -21.07984924 286.93224304 -21.07984924 286.25224304 C-21.79785706 285.98669617 -22.51586487 285.72114929 -23.25563049 285.44755554 C-32.08835969 281.70922202 -39.84229453 275.44520223 -47.07984924 269.25224304 C-47.70633362 268.73403992 -48.33281799 268.21583679 -48.97828674 267.68193054 C-58.98642732 258.67007545 -63.85568677 245.95492063 -65.35328674 232.86161804 C-65.93792609 220.35933048 -60.8215162 209.37195882 -52.82984924 200.12724304 C-48.61420079 195.61047684 -44.09882185 191.83602448 -39.07984924 188.25224304 C-38.4756012 187.81992371 -37.87135315 187.38760437 -37.24879456 186.94218445 C-35.52688512 185.71070321 -33.80347657 184.4813187 -32.07984924 183.25224304 C-33.60352112 182.52521179 -33.60352112 182.52521179 -35.15797424 181.78349304 C-52.56013048 173.36261554 -72.66077506 162.24365302 -80.07984924 143.25224304 C-82.75089255 135.41236997 -82.95664181 126.87272064 -79.57984924 119.18974304 C-73.49120499 108.56189446 -64.9921741 102.44760501 -53.82984924 97.93974304 C-41.98406639 94.97829733 -27.5884782 94.22976324 -16.57984924 100.12724304 C-13.95592263 102.35758066 -13.40902219 102.9480919 -13.07984924 106.25224304 C-16.34490625 113.29704585 -24.3364149 116.45343603 -31.07984924 119.25224304 C-39.30784859 121.76635395 -46.55939271 120.13586394 -54.07984924 116.25224304 C-54.79527893 115.71212585 -55.51070862 115.17200867 -56.24781799 114.61552429 C-57.96666501 113.05324799 -57.96666501 113.05324799 -60.07984924 113.25224304 C-60.67026347 123.3330192 -59.36898125 132.56403753 -52.71266174 140.49052429 C-52.17383362 141.07189148 -51.63500549 141.65325867 -51.07984924 142.25224304 C-50.39535706 143.01601257 -50.39535706 143.01601257 -49.69703674 143.79521179 C-39.13312172 154.11023876 -22.87127988 158.3236231 -9.07984924 162.25224304 C-6.74649526 162.91883742 -4.41316016 163.58549794 -2.07984924 164.25224304 C-2.14609151 163.27343611 -2.21233377 162.29462917 -2.28058338 161.28616142 C-2.9019949 151.88172964 -3.32542906 142.48733928 -3.59230042 133.06523132 C-3.63490222 131.62770506 -3.67770959 130.19018488 -3.72070312 128.75267029 C-3.83489139 124.90657703 -3.94550602 121.06039022 -4.05482268 117.21415567 C-4.12325279 114.80726239 -4.19222838 112.40038525 -4.26133156 109.9935112 C-4.47764385 102.44912239 -4.69148152 94.90466889 -4.90203208 87.36011708 C-5.14459017 78.67102484 -5.39584069 69.98223869 -5.65425891 61.29360402 C-5.85422058 54.55210094 -6.04636999 47.81040336 -6.23256475 41.06850612 C-6.34373415 37.04992505 -6.45829125 33.03150763 -6.58109093 29.0132637 C-6.69592786 25.249177 -6.80112235 21.48494617 -6.89875221 17.72037506 C-6.93630596 16.33752492 -6.97739679 14.95476581 -7.0222168 13.57213211 C-7.08266633 11.69097139 -7.12934547 9.80938294 -7.17523193 7.92781067 C-7.22029515 6.34676639 -7.22029515 6.34676639 -7.26626873 4.73378181 C-6.90294015 -0.10269734 -4.21193247 0.020334 0 0 Z M21.92015076 204.25224304 C21.59015076 224.71224304 21.26015076 245.17224304 20.92015076 266.25224304 C31.77583817 261.90996808 41.53502594 254.14890365 46.35765076 243.31474304 C48.68210415 236.73382304 48.94148589 231.22203618 46.35765076 224.68974304 C41.80978079 215.60979432 34.81799737 209.95324929 25.92015076 205.25224304 C24.60015076 204.92224304 23.28015076 204.59224304 21.92015076 204.25224304 Z M-18.07984924 214.68974304 C-22.98442236 220.00103686 -25.66211233 226.15842133 -26.39234924 233.31474304 C-25.55755167 243.83319246 -20.87181527 251.30902369 -13.07984924 258.25224304 C-8.66937761 261.48501864 -4.29002958 264.51551626 0.92015076 266.25224304 C0.8002441 260.15473877 0.67592564 254.0573446 0.5478363 247.96000671 C0.50501055 245.89362416 0.46330919 243.82721794 0.4228363 241.76078796 C0.17665701 229.23603641 -0.21944021 216.75087189 -1.07984924 204.25224304 C-6.42924812 204.25224304 -14.31582885 211.12296389 -18.07984924 214.68974304 Z M-10.07984924 319.25224304 C-15.25044514 324.51408475 -17.71268517 329.83789758 -18.07984924 337.25224304 C-17.61154282 343.48871394 -14.59300786 348.23189601 -11.07984924 353.25224304 C-10.27547424 354.55161804 -10.27547424 354.55161804 -9.45484924 355.87724304 C-6.9216196 358.41047268 -4.58335378 359.72117858 -1.43141174 361.40068054 C0.06784851 362.20384705 0.06784851 362.20384705 1.59739685 363.02323914 C2.36390564 363.42881042 3.13041443 363.83438171 3.92015076 364.25224304 C3.79974812 359.29405483 3.67542688 354.33598393 3.5478363 349.37797546 C3.50515394 347.69961557 3.46344971 346.02123045 3.4228363 344.34281921 C3.1465626 332.96102462 2.66595526 321.6131792 1.92015076 310.25224304 C-1.86358713 310.25224304 -7.36733334 316.83817945 -10.07984924 319.25224304 Z M19.92015076 310.25224304 C19.00332413 322.06074495 18.62554178 333.8511468 18.35765076 345.68974304 C18.31432209 347.50029691 18.27070403 349.31084387 18.22679138 351.12138367 C18.12125196 355.49826465 18.01959223 359.87521945 17.92015076 364.25224304 C26.80205454 359.55055006 34.5191917 354.50070417 38.29515076 344.74052429 C40.02260182 337.86310976 40.10036277 330.44248979 36.45530701 324.19755554 C31.89685911 318.42120172 26.22473514 313.95769004 19.92015076 310.25224304 Z M9.92015076 367.25224304 C11.40515076 368.24224304 11.40515076 368.24224304 12.92015076 369.25224304 C12.92015076 368.59224304 12.92015076 367.93224304 12.92015076 367.25224304 C11.93015076 367.25224304 10.94015076 367.25224304 9.92015076 367.25224304 Z M-0.57984924 411.18974304 C-4.39763231 415.151292 -6.00331912 418.73250771 -6.07984924 424.25224304 C-5.10082757 431.33655262 -0.04063048 436.4471814 4.92015076 441.25224304 C5.25015076 441.25224304 5.58015076 441.25224304 5.92015076 441.25224304 C5.59015076 430.36224304 5.26015076 419.47224304 4.92015076 408.25224304 C2.15201894 408.25224304 1.4224336 409.31896606 -0.57984924 411.18974304 Z M16.92015076 408.25224304 C16.02682236 424.74266443 16.02682236 424.74266443 15.92015076 441.25224304 C21.94379696 436.76952959 25.86573656 432.00859361 27.92015076 424.68974304 C27.92015076 418.86698752 25.8102693 414.94174181 21.85765076 410.81474304 C19.31864716 408.03312012 19.31864716 408.03312012 16.92015076 408.25224304 Z " fill="#001276" transform="translate(281.07984924316406,47.74775695800781)"/>
<path d="M0 0 C2.68159802 0.00855257 5.36108924 -0.02041296 8.04248047 -0.05200195 C20.11566028 -0.10222515 29.57485163 0.81395793 38.73388672 9.45385742 C45.11232159 16.43454795 49.08522532 23.62362232 48.79638672 33.21948242 C47.7753831 42.60612861 40.55055311 48.86620344 33.61669922 54.44604492 C30.58316665 57.03206112 30.58316665 57.03206112 28.87841797 60.51635742 C28.6649126 66.42708495 31.08012854 70.67716011 34.74169922 75.07104492 C43.61892039 82.56736502 52.30159934 82.78475194 63.55419922 82.44604492 C65.16152614 82.2879085 66.7671551 82.10707468 68.36669922 81.88354492 C69.94451172 81.66698242 69.94451172 81.66698242 71.55419922 81.44604492 C73.66999536 83.56184106 72.97894798 88.07899755 73.11669922 91.00854492 C73.15915771 91.85521729 73.20161621 92.70188965 73.24536133 93.57421875 C73.61491673 101.53564664 73.65311975 109.47744659 73.55419922 117.44604492 C62.37166859 123.59643677 47.47578021 124.63910772 35.11669922 121.38354492 C23.94134254 117.22935474 12.4625946 110.03190718 6.39794922 99.50073242 C4.92185756 95.90617588 5.03207036 93.29674524 5.55419922 89.44604492 C7.05419922 87.63354492 7.05419922 87.63354492 8.55419922 86.44604492 C8.55419922 85.45604492 8.55419922 84.46604492 8.55419922 83.44604492 C7.75498047 83.46924805 6.95576172 83.49245117 6.13232422 83.51635742 C-9.25029148 83.76912341 -21.29933452 81.21602865 -33.44580078 71.44604492 C-33.44580078 70.78604492 -33.44580078 70.12604492 -33.44580078 69.44604492 C-34.10580078 69.44604492 -34.76580078 69.44604492 -35.44580078 69.44604492 C-44.93515826 58.69906175 -45.94160847 48.21848071 -45.44580078 34.44604492 C-49.0930065 35.00226366 -50.46599115 36.2371156 -52.75830078 39.07104492 C-53.37318359 39.79807617 -53.98806641 40.52510742 -54.62158203 41.27416992 C-55.52457031 42.34924805 -55.52457031 42.34924805 -56.44580078 43.44604492 C-76.86980288 67.37284421 -125.65583874 92.7050924 -156.44580078 97.44604492 C-160.82451941 97.74225978 -165.18330731 97.7708832 -169.57080078 97.75854492 C-170.72451172 97.7746582 -171.87822266 97.79077148 -173.06689453 97.80737305 C-183.57906122 97.81343543 -183.57906122 97.81343543 -188.44580078 94.44604492 C-189.10580078 93.78604492 -189.76580078 93.12604492 -190.44580078 92.44604492 C-190.44580078 91.45604492 -190.44580078 90.46604492 -190.44580078 89.44604492 C-183.24107389 86.27146213 -176.03429542 83.25505328 -168.63330078 80.57104492 C-156.60869691 76.15782183 -145.14601176 70.68576097 -134.17236328 64.07495117 C-131.63093029 62.55664521 -129.06003806 61.1465997 -126.44580078 59.75854492 C-113.45997548 52.71915318 -100.95224009 44.79375293 -88.44580078 36.94604492 C-29.33142036 -0.14264684 -29.33142036 -0.14264684 0 0 Z " fill="#001176" transform="translate(199.44580078125,-0.446044921875)"/>
<path d="M0 0 C2.65556364 0.02132983 5.30838891 0.00019012 7.96386719 -0.02539062 C22.20315719 -0.05151028 34.00864445 2.45901756 46.73730469 9.14648438 C47.58711914 9.58323486 48.43693359 10.01998535 49.3125 10.4699707 C62.84639898 17.50593107 75.71529604 25.60024634 88.62768555 33.70288086 C104.84801326 43.87941399 121.17081986 53.89941647 137.83447266 63.33691406 C139.15115931 64.08306726 140.46562254 64.83317112 141.77685547 65.58886719 C158.87059231 75.40999599 177.60035166 82.35499037 195.92480469 89.52148438 C195.15917969 93.31054688 195.15917969 93.31054688 193.04980469 95.20898438 C187.76744128 98.4716206 181.9918828 97.74366931 175.98730469 97.77148438 C174.90900391 97.79210937 173.83070313 97.81273438 172.71972656 97.83398438 C161.74999752 97.88656546 152.05814605 95.38538515 142.04980469 91.02148438 C141.25082764 90.67746582 140.45185059 90.33344727 139.62866211 89.97900391 C120.98556353 81.8232109 103.32715676 72.03878363 85.92480469 61.52148438 C85.18133789 61.07498535 84.43787109 60.62848633 83.671875 60.16845703 C73.19256539 53.83478054 64.11857966 46.70656625 56.49511719 37.05273438 C54.67834739 35.28115786 53.40098381 34.90738242 50.92480469 34.52148438 C50.97121094 35.47667969 51.01761719 36.431875 51.06542969 37.41601562 C51.43832417 50.77362881 48.61141527 60.59730815 39.23730469 70.58398438 C29.76118027 79.76233779 16.95710815 83.77378018 3.89355469 83.62304688 C1.19035025 83.48359585 -1.42374123 83.05177519 -4.07519531 82.52148438 C-3.00118424 85.43665729 -2.29709356 87.29958613 -0.07519531 89.52148438 C0.62469166 95.47052365 -0.80953087 98.79426382 -4.07519531 103.52148438 C-4.61144531 104.34648438 -5.14769531 105.17148438 -5.70019531 106.02148438 C-14.51605341 115.30133501 -27.47266734 122.16700936 -40.33691406 122.85742188 C-41.8119432 122.88660915 -43.28737996 122.89921555 -44.76269531 122.89648438 C-45.5392749 122.89704834 -46.31585449 122.8976123 -47.1159668 122.89819336 C-53.48323472 122.77832812 -63.35355108 122.24312861 -68.07519531 117.52148438 C-68.17455947 116.12457437 -68.20599672 114.72270369 -68.20800781 113.32226562 C-68.20994141 112.44852295 -68.211875 111.57478027 -68.21386719 110.67456055 C-68.20935547 109.73717041 -68.20484375 108.79978027 -68.20019531 107.83398438 C-68.19729492 106.41533081 -68.19729492 106.41533081 -68.19433594 104.96801758 C-68.14838402 97.44913447 -67.77997434 90.00976158 -67.07519531 82.52148438 C-63.68444613 81.39123465 -61.52837463 81.77687697 -58.07519531 82.52148438 C-47.62392253 83.25008739 -38.51236439 83.03317786 -30.13769531 76.08398438 C-26.16467032 71.1478018 -23.60096778 67.04106353 -23.69140625 60.57617188 C-24.36143094 56.98906767 -26.96595861 55.14659502 -29.70019531 53.02148438 C-30.80741935 52.08782782 -31.91032097 51.14902065 -33.00878906 50.20507812 C-33.53972168 49.75245605 -34.0706543 49.29983398 -34.61767578 48.83349609 C-39.4324479 44.49939469 -42.6451751 39.92092196 -43.27832031 33.44335938 C-43.49601971 23.35662041 -39.69208896 16.96548973 -33.07519531 9.52148438 C-23.55800144 0.0042905 -12.66758731 -0.12086505 0 0 Z " fill="#001076" transform="translate(379.0751953125,-0.521484375)"/>
<path d="M0 0 C2.63751452 -0.49165319 4.40971251 -0.36335736 6.71337891 1.0546875 C8.78673095 2.65832535 10.80209064 4.31809475 12.8125 6 C34.04467841 23.10419035 57.19266111 36.81790406 82 48 C83.010625 48.45632812 84.02125 48.91265625 85.0625 49.3828125 C87.03720582 50.26525916 89.01760876 51.13495655 91 52 C91 53.32 91 54.64 91 56 C82.28286233 60.46574675 68.43855407 59.11405351 59.3125 56.5 C57.18748373 55.72136808 55.0835472 54.88362484 53 54 C52.38157227 53.7421875 51.76314453 53.484375 51.12597656 53.21875 C30.78824775 44.60934398 10.79970536 32.35938119 -6 18 C-5.38103189 14.40224787 -4.40075316 11.24298739 -3 7.875 C-1.91805888 5.25765713 -0.89614813 2.6884444 0 0 Z " fill="#001176" transform="translate(437,51)"/>
<path d="M0 0 C3.11364804 1.55682402 3.37244192 4.11888146 4.5625 7.3125 C5.21412109 9.03919922 5.21412109 9.03919922 5.87890625 10.80078125 C6.43384766 12.38439453 6.43384766 12.38439453 7 14 C7.31839844 14.69480469 7.63679688 15.38960937 7.96484375 16.10546875 C8 18 8 18 5.96875 20.44921875 C2.91696689 23.07134292 -0.20907658 25.50383878 -3.5 27.8125 C-4.11818604 28.24771973 -4.73637207 28.68293945 -5.37329102 29.13134766 C-25.02813066 42.84029085 -49.24200007 59.10781818 -73.875 59.25 C-74.76058594 59.270625 -75.64617187 59.29125 -76.55859375 59.3125 C-81.82973943 59.34392263 -85.40164659 58.88345593 -90 56 C-88.48476754 52.30008043 -88.48476754 52.30008043 -86.36206055 50.98608398 C-85.71019775 50.74188721 -85.05833496 50.49769043 -84.38671875 50.24609375 C-83.64413818 49.95508789 -82.90155762 49.66408203 -82.13647461 49.36425781 C-80.92423218 48.9055127 -80.92423218 48.9055127 -79.6875 48.4375 C-61.89390936 41.29623684 -45.63312328 32.05898721 -30 21 C-29.21399414 20.4445752 -28.42798828 19.88915039 -27.61816406 19.31689453 C-19.81832951 13.78218726 -12.04132382 8.2216057 -4.62890625 2.171875 C-3 1 -3 1 0 0 Z " fill="#001176" transform="translate(145,50)"/>
<path d="M0 0 C1.258125 -0.01546875 2.51625 -0.0309375 3.8125 -0.046875 C11.84848759 -0.01282421 15.85046665 0.45118348 21.609375 6.0703125 C25.6139175 11.52855879 27.54972898 17.31456342 26.65625 24.1171875 C24.94809589 30.80745777 21.8818788 36.08852984 15.9375 39.78125 C7.88081959 43.9280708 -0.81153541 45.14074566 -9.7109375 42.78125 C-16.34722381 39.97271927 -21.86539353 36.00026549 -25.2421875 29.4453125 C-27.67774152 23.19322023 -27.33917321 17.70422116 -24.9453125 11.50390625 C-19.58280467 0.13627601 -11.34943397 -0.13954222 0 0 Z M9 7.5 C8.30840599 9.34725052 8.30840599 9.34725052 8 11.5 C8.99 12.985 8.99 12.985 10 14.5 C10.68224494 19.18051763 10.77302735 23.21162108 8.3125 27.3125 C7.549375 28.034375 6.78625 28.75625 6 29.5 C5.0925 30.428125 4.185 31.35625 3.25 32.3125 C2.5075 33.034375 1.765 33.75625 1 34.5 C6.73236598 34.95858928 9.55296547 34.15645061 14 30.5 C17.78796455 26.91679029 18.75239786 23.77582651 19.09765625 18.71484375 C18.94798379 15.32027231 17.96046531 13.24465143 16 10.5 C12.80487632 8.10619909 12.80487632 8.10619909 9 7.5 Z " fill="#001175" transform="translate(292,-0.5)"/>
<path d="M0 0 C3.48509931 1.54444076 6.14322337 3.62475353 9.0625 6.0625 C10.53203125 7.27486328 10.53203125 7.27486328 12.03125 8.51171875 C13.87868067 10.06015735 15.71436392 11.6228636 17.53125 13.20703125 C27.15525329 21.44981185 38.03009329 27.76521378 49.125 33.81640625 C49.95185303 34.26765869 50.77870605 34.71891113 51.63061523 35.18383789 C53.22365109 36.04600598 54.82199314 36.89845736 56.42602539 37.73999023 C61.8917788 40.67533639 61.8917788 40.67533639 63 44 C50.08951118 48.03452776 36.75097054 45.0301033 25 39 C23.9378125 38.45601562 22.875625 37.91203125 21.78125 37.3515625 C8.92874422 30.36522335 -3.01497865 21.63903059 -14 12 C-12.73927326 8.21781978 -11.53835626 7.89960696 -8.125 6 C-4.99850035 4.24988941 -2.40407516 2.67473263 0 0 Z " fill="#001176" transform="translate(427,73)"/>
<path d="M0 0 C3.03799684 1.43941536 5.77968059 3.11653508 8.5625 5 C9.32691406 5.515625 10.09132813 6.03125 10.87890625 6.5625 C11.57886719 7.036875 12.27882813 7.51125 13 8 C13.99 8.66 14.98 9.32 16 10 C14.66838317 13.0521672 13.34781394 14.8163364 10.71875 16.84765625 C10.05077393 17.36513428 9.38279785 17.8826123 8.69458008 18.41577148 C7.97036865 18.95919189 7.24615723 19.5026123 6.5 20.0625 C5.74678467 20.63105713 4.99356934 21.19961426 4.2175293 21.78540039 C-12.54432435 34.22988563 -32.33148282 47.93900058 -54.234375 45.6640625 C-56.54065843 45.21453268 -58.75870449 44.70040485 -61 44 C-59.57176845 40.38002293 -58.094281 39.1824008 -54.6328125 37.484375 C-53.75294678 37.04206543 -52.87308105 36.59975586 -51.96655273 36.14404297 C-51.02884033 35.68400879 -50.09112793 35.22397461 -49.125 34.75 C-40.99302767 30.6246789 -33.38611997 26.37074906 -26 21 C-24.99839844 20.28199219 -23.99679688 19.56398438 -22.96484375 18.82421875 C-17.05733283 14.50001038 -11.51709712 9.93090032 -6.15625 4.9453125 C-4.17929578 3.16175598 -2.15654039 1.55859056 0 0 Z " fill="#001076" transform="translate(155,73)"/>
<path d="M0 0 C1.12019531 0.15339844 2.24039063 0.30679688 3.39453125 0.46484375 C5.08642578 0.69880859 5.08642578 0.69880859 6.8125 0.9375 C7.95332031 1.09089844 9.09414062 1.24429688 10.26953125 1.40234375 C11.17058594 1.59957031 12.07164062 1.79679687 13 2 C13.495 2.99 13.495 2.99 14 4 C7.49872509 18.72945096 -9.83330074 28.93461678 -24 35 C-29.69184194 37.12238174 -36.50945444 38.56203416 -42.26953125 35.984375 C-42.84058594 35.65953125 -43.41164062 35.3346875 -44 35 C-42.64727746 31.8818528 -41.24919951 30.10730213 -38.5859375 28.01171875 C-37.91062988 27.47313232 -37.23532227 26.9345459 -36.53955078 26.37963867 C-35.82524902 25.82123291 -35.11094727 25.26282715 -34.375 24.6875 C-32.92086665 23.53251839 -31.46773059 22.37627999 -30.015625 21.21875 C-29.32017578 20.66574219 -28.62472656 20.11273438 -27.90820312 19.54296875 C-24.96551303 17.16351617 -22.15868978 14.64470601 -19.3828125 12.07421875 C-18 11 -18 11 -16 11 C-16 10.34 -16 9.68 -16 9 C-14.625 7.375 -14.625 7.375 -13 6 C-12.34 6 -11.68 6 -11 6 C-10.731875 5.401875 -10.46375 4.80375 -10.1875 4.1875 C-7.29998214 -1.13161184 -5.85398354 -1.11701453 0 0 Z " fill="#001276" transform="translate(182,87)"/>
<path d="M0 0 C2.17578125 2.0390625 2.17578125 2.0390625 4.3125 4.625 C13.62418602 15.41982813 25.34612787 23.86939154 37 32 C36.6875 33.9375 36.6875 33.9375 36 36 C26.78115945 39.07294685 18.6777473 35.68002706 10.27734375 31.71484375 C-1.77597521 25.48874086 -16.50972419 16.47082742 -21 3 C-17.01402828 1.07130401 -13.33946151 0.60442624 -8.98828125 0.24609375 C-1.94356597 -0.62584547 -1.94356597 -0.62584547 0 0 Z " fill="#001076" transform="translate(409,87)"/>
<path d="M0 0 C0.33 0 0.66 0 1 0 C1 15.18 1 30.36 1 46 C-0.32 46 -1.64 46 -3 46 C-3 31.48 -3 16.96 -3 2 C-2.67 2 -2.34 2 -2 2 C-1.67 9.26 -1.34 16.52 -1 24 C-0.67 16.08 -0.34 8.16 0 0 Z " fill="#00005D" transform="translate(293,567)"/>
<path d="M0 0 C0.33 0 0.66 0 1 0 C1.49673465 4.17257103 1.22039677 5.68777124 -1.25 9.1875 C-3.4220987 11.40896458 -5.42622425 13.2841495 -8 15 C-2.66116873 15.50846012 -0.17637442 14.28778412 4 11 C5.70328319 9.3707726 7.38161281 7.71358643 9 6 C7.34647386 11.26121955 4.46420359 14.63820328 -0.375 17.3125 C-3.64727604 18.16952468 -6.63275873 18.13204868 -10 18 C-10.33 16.68 -10.66 15.36 -11 14 C-10.18595703 13.48953125 -10.18595703 13.48953125 -9.35546875 12.96875 C-3.82669133 9.22312782 -1.77596839 6.43788543 0 0 Z " fill="#00073E" transform="translate(302,18)"/>
<path d="M0 0 C0.33 0 0.66 0 1 0 C1.66 5.61 2.32 11.22 3 17 C10.43839299 18.90770064 10.43839299 18.90770064 17.5 18.625 C18.5415625 18.51414063 19.583125 18.40328125 20.65625 18.2890625 C21.4296875 18.19367188 22.203125 18.09828125 23 18 C23 18.66 23 19.32 23 20 C21.44033408 20.36644578 19.87707349 20.71760862 18.3125 21.0625 C17.00732422 21.35833984 17.00732422 21.35833984 15.67578125 21.66015625 C10.31070347 22.34156029 5.73092877 20.45644379 1 18 C-0.50199198 14.45059995 -0.09758991 10.53971069 -0.0625 6.75 C-0.05347656 5.48671875 -0.04445313 4.2234375 -0.03515625 2.921875 C-0.02355469 1.95765625 -0.01195312 0.9934375 0 0 Z " fill="#000071" transform="translate(279,194)"/>
<path d="M0 0 C0.33 0 0.66 0 1 0 C1.07416067 4.64473982 1.12860615 9.28913499 1.16479492 13.93432617 C1.17988094 15.51446536 1.2003525 17.09456269 1.22631836 18.67456055 C1.26271126 20.94590585 1.27972762 23.21669759 1.29296875 25.48828125 C1.30845261 26.19463211 1.32393646 26.90098297 1.33988953 27.6287384 C1.34090037 30.57506648 1.33847875 32.52155106 -0.39331055 34.96948242 C-2 36 -2 36 -4 36 C-4 35.34 -4 34.68 -4 34 C-5.32 33.67 -6.64 33.34 -8 33 C-5.69 32.01 -3.38 31.02 -1 30 C-0.67 20.1 -0.34 10.2 0 0 Z " fill="#000172" transform="translate(298,381)"/>
<path d="M0 0 C0.66 0.33 1.32 0.66 2 1 C1.01 2.32 0.02 3.64 -1 5 C-0.13375 5.268125 0.7325 5.53625 1.625 5.8125 C4.91791964 6.97111987 7.91127875 8.38209839 11 10 C8 11 8 11 4.86328125 9.56640625 C3.6739872 8.90864027 2.49053629 8.24022185 1.3125 7.5625 C0.70599609 7.22412109 0.09949219 6.88574219 -0.52539062 6.53710938 C-2.0220025 5.70042085 -3.51169189 4.85137169 -5 4 C-3.73293765 1.46587529 -2.59334288 1.02161992 0 0 Z " fill="#00036C" transform="translate(299,316)"/>
<path d="M0 0 C0.66 0.33 1.32 0.66 2 1 C1.67 1.99 1.34 2.98 1 4 C0.34 4 -0.32 4 -1 4 C-1 5.65 -1 7.3 -1 9 C-1.99 7.68 -2.98 6.36 -4 5 C-4.66 5.66 -5.32 6.32 -6 7 C-6.99 6.67 -7.98 6.34 -9 6 C-6.03 4.02 -3.06 2.04 0 0 Z " fill="#000273" transform="translate(286,354)"/>
<path d="M0 0 C0.556875 0.721875 1.11375 1.44375 1.6875 2.1875 C3.9634445 5.07040666 3.9634445 5.07040666 6.75 7.625 C9 10 9 10 9 13 C5.39584951 11.7986165 4.85293989 10.73856012 2.8125 7.625 C2.28269531 6.83351563 1.75289063 6.04203125 1.20703125 5.2265625 C0 3 0 3 0 0 Z " fill="#000175" transform="translate(257,551)"/>
<path d="M0 0 C0.99 0 1.98 0 3 0 C3.33 0.66 3.66 1.32 4 2 C6.01669827 3.13350534 6.01669827 3.13350534 8 4 C8 4.66 8 5.32 8 6 C4.22454612 4.90931332 1.52956528 4.0916909 -1 1 C-0.67 0.67 -0.34 0.34 0 0 Z " fill="#001B88" transform="translate(280,511)"/>
<path d="M0 0 C1.65 0 3.3 0 5 0 C4.01 0.66 3.02 1.32 2 2 C2.33 4.97 2.66 7.94 3 11 C-1 5 -1 5 -0.625 2.3125 C-0.41875 1.549375 -0.2125 0.78625 0 0 Z " fill="#000236" transform="translate(299,6)"/>
<path d="M0 0 C3.3 0.99 6.6 1.98 10 3 C6.8035914 4.06546953 4.34252724 4.07427838 1 4 C0.67 2.68 0.34 1.36 0 0 Z " fill="#000274" transform="translate(292,246)"/>
<path d="M0 0 C3.9492568 0.55105909 7.34920174 1.38935371 11 3 C10.01 3.33 9.02 3.66 8 4 C7.67 4.66 7.34 5.32 7 6 C6.34 5.01 5.68 4.02 5 3 C2.44816596 1.79549696 2.44816596 1.79549696 0 1 C0 0.67 0 0.34 0 0 Z " fill="#00016C" transform="translate(272,239)"/>
<path d="M0 0 C0.66 0.66 1.32 1.32 2 2 C-1.465 4.97 -1.465 4.97 -5 8 C-5.33 7.34 -5.66 6.68 -6 6 C-4 4 -2 2 0 0 Z " fill="#00007A" transform="translate(323,556)"/>
</svg>
